<svg xmlns="http://www.w3.org/2000/svg" xmlns:xlink="http://www.w3.org/1999/xlink" width="2075.128" height="177.605" viewBox="0 0 2075.128 177.605">
  <defs>
    <clipPath id="clip-path">
      <path id="Path_8" data-name="Path 8" d="M41,440H144.843v69.463H41Zm0,0" transform="translate(-41 -440)"/>
    </clipPath>
    <clipPath id="clip-path-2">
      <path id="Path_12" data-name="Path 12" d="M759,419H876.112v46.152H759Zm0,0" transform="translate(-759 -419)"/>
    </clipPath>
    <clipPath id="clip-path-3">
      <path id="Path_14" data-name="Path 14" d="M759,438H876.112v46.152H759Zm0,0" transform="translate(-759 -438)"/>
    </clipPath>
  </defs>
  <g id="leafy-border" transform="translate(89.5 -393.137)">
    <path id="Path_1" data-name="Path 1" d="M1882.93,461.673a21.889,21.889,0,0,0-4.273-.37c-23.383-3.939-46.18-10.483-69.661-14.188-11.917-1.884-23.77-1.965-35.444-5.445-11.89-3.552-23.148-3.245-35.417-3.1a2.244,2.244,0,0,0-.937-.252c-.189-.009-.379-.009-.559-.027a12.523,12.523,0,0,0-1.929.1,2.533,2.533,0,0,1-1.7-.288c-32.929-1.532-65.677-5.454-98.416-9.014-34.524-3.75-68.985-5.742-103.672-6.968-70.292-2.488-140.639-2.776-210.976-1.695-140.386,2.163-280.6,10.312-420.717,19.056-139.8,8.735-279.492,17.01-419.518,21.4q-209.944,6.585-420.023,5.5-74.245-.27-148.49-1.46a1.9,1.9,0,0,1-.559.64,5.041,5.041,0,0,1-.135.64c.2.451.37.919.559,1.379a2.054,2.054,0,0,1,1.046,1.514c226.85,3.443,453.8,1.289,680.478-8.095,280.484-11.637,560.175-39.266,841.164-36.787,50.488.469,101.157,1.289,151.564,4.552,50.344,3.281,100.21,11.556,150.635,13.711.063,0,.1-.045.153-.045,1.37.081,2.713.2,4.065.334,12.313-.081,23.374.306,35.48,3.939,11.673,3.461,24.185,3.191,36.147,5.093,13,2.055,25.681,5.976,38.445,9.05,7.328,1.767,14.81,3.011,22.292,4.074,2.957.27,5.85.856,8.834.856,1.541.018,3.074.081,4.624.171a41.807,41.807,0,0,1,1.37-4.174c-1.469-.036-2.939-.072-4.426-.1" transform="translate(0 34.901)" fill="#8f9a5e"/>
    <path id="Path_2" data-name="Path 2" d="M99.891,464.026c-28.476,18.488-57.907,15.423-57.907,15.423s24.852-36.688,53.346-55.194c28.476-18.488,49.785-11.763,49.785-11.763s-16.757,33.028-45.224,51.534" transform="translate(171.932 23.75)" fill="#9d9465"/>
    <path id="Path_3" data-name="Path 3" d="M538.727,445.851c-28.467,18.488-57.907,15.423-57.907,15.423s24.861-36.688,53.355-55.176c28.467-18.488,49.776-11.772,49.776-11.772s-16.748,33.037-45.224,51.525" transform="translate(745.763 0)" fill="#9d9465"/>
    <path id="Path_4" data-name="Path 4" d="M718.938,440.067c-32.108,11.132-68.922,8.23-68.922,8.23s21.517-25.69,53.634-36.814C735.74,400.369,766.289,408,766.289,408s-15.252,20.94-47.351,32.063" transform="translate(967.006 16.096)" fill="#9d9465"/>
    <path id="Path_5" data-name="Path 5" d="M392.677,414.059c-40.888,23.148-50.407,48.352-50.407,48.352s30.513,8.455,65.262-17.226c27.511-20.327,55.482-40.8,55.482-40.8s-40.789-7.049-70.337,9.672" transform="translate(564.591 12.781)" fill="#9d9465"/>
    <path id="Path_6" data-name="Path 6" d="M258.755,421.156C217.867,444.3,208.348,469.5,208.348,469.5s30.513,8.464,65.28-17.226c27.493-20.318,55.464-40.762,55.464-40.762s-40.789-7.058-70.337,9.645" transform="translate(389.472 22.09)" fill="#9d9465"/>
    <g id="Group_2" data-name="Group 2" transform="translate(211.645 501.279)" clip-path="url(#clip-path)">
      <path id="Path_7" data-name="Path 7" d="M98.962,456.11C70.486,437.6,41.055,440.687,41.055,440.687s24.87,36.688,53.346,55.176,49.785,11.772,49.785,11.772S127.446,474.6,98.962,456.11" transform="translate(-40.928 -439.353)" fill="#9d9465"/>
    </g>
    <path id="Path_9" data-name="Path 9" d="M538.727,437.46c-28.467-18.488-57.907-15.405-57.907-15.405s24.861,36.688,53.355,55.176C562.642,495.718,583.951,489,583.951,489S567.2,455.948,538.727,437.46" transform="translate(745.763 37.561)" fill="#9d9465"/>
    <path id="Path_10" data-name="Path 10" d="M718.938,432.754c-32.108-11.159-68.922-8.248-68.922-8.248s21.517,25.69,53.634,36.8c32.09,11.123,62.639,3.488,62.639,3.488s-15.252-20.931-47.351-32.045" transform="translate(967.006 40.572)" fill="#9d9465"/>
    <g id="Group_3" data-name="Group 3" transform="translate(1868.516 452.819)" clip-path="url(#clip-path-2)">
      <path id="Path_11" data-name="Path 11" d="M828.285,454.45c-32.108,11.141-68.922,8.23-68.922,8.23S780.9,436.99,813,425.866s62.639-3.479,62.639-3.479-15.252,20.949-47.351,32.063" transform="translate(-758.525 -417.916)" fill="#9d9465"/>
    </g>
    <g id="Group_4" data-name="Group 4" transform="translate(1868.516 496.664)" clip-path="url(#clip-path-3)">
      <path id="Path_13" data-name="Path 13" d="M828.285,447.137c-32.108-11.159-68.922-8.248-68.922-8.248S780.9,464.58,813,475.7s62.639,3.479,62.639,3.479-15.252-20.931-47.351-32.045" transform="translate(-758.525 -437.285)" fill="#9d9465"/>
    </g>
    <path id="Path_15" data-name="Path 15" d="M393.718,479.006c-40.906-23.13-50.425-48.343-50.425-48.343s30.513-8.464,65.289,17.226c27.5,20.336,55.473,40.771,55.473,40.771s-40.789,7.049-70.337-9.654" transform="translate(565.929 47.323)" fill="#9d9465"/>
    <path id="Path_16" data-name="Path 16" d="M258.755,486.062c-40.888-23.13-50.407-48.352-50.407-48.352s30.513-8.464,65.28,17.226c27.493,20.345,55.464,40.8,55.464,40.8s-40.789,7.067-70.337-9.672" transform="translate(389.472 56.538)" fill="#9d9465"/>
  </g>
</svg>
