<svg xmlns="http://www.w3.org/2000/svg" viewBox="0 0 183 243.09"><defs><style>.cls-1{font-size:213.05px;fill:#fff;font-family:AbrilFatface-Regular, Abril Fatface;}.cls-2{fill:#fef6d7;}</style></defs><g id="Layer_2" data-name="Layer 2"><g id="Layer_1-2" data-name="Layer 1"><text class="cls-1" transform="translate(0 181.09)">S</text><path class="cls-2" d="M179.69,127.48a1.72,1.72,0,0,0-3.14-.13,19,19,0,0,1-16.63,9.71H151a21.3,21.3,0,0,0-21.3,21.3c0,.78.09,1.52.16,2.27,7.08-5.07,17.3-9.37,31.79-9.37a1.78,1.78,0,1,1,0,3.55c-27.89,0-39.72,17.1-42.34,23.52a3.56,3.56,0,0,0,6.58,2.7,29.17,29.17,0,0,1,8-10.05,21.25,21.25,0,0,0,19.41,8.56c17.42-1.26,29.68-16.89,29.68-36A40.28,40.28,0,0,0,179.69,127.48Z"/></g></g></svg>